<svg xmlns="http://www.w3.org/2000/svg" viewBox="0 0 1600 900" role="img" aria-label="Detailed city life background">
  <defs>
    <linearGradient id="sky" x1="0" y1="0" x2="0" y2="1">
      <stop offset="0%" stop-color="#58b6ea" />
      <stop offset="56%" stop-color="#8ad8ff" />
      <stop offset="100%" stop-color="#d4efff" />
    </linearGradient>
    <linearGradient id="road" x1="0" y1="0" x2="0" y2="1">
      <stop offset="0%" stop-color="#607a9c" />
      <stop offset="100%" stop-color="#405875" />
    </linearGradient>
    <linearGradient id="towerA" x1="0" y1="0" x2="0" y2="1">
      <stop offset="0%" stop-color="#8bcdf2" />
      <stop offset="100%" stop-color="#3f88bd" />
    </linearGradient>
    <linearGradient id="towerB" x1="0" y1="0" x2="0" y2="1">
      <stop offset="0%" stop-color="#5f88b1" />
      <stop offset="100%" stop-color="#2f547a" />
    </linearGradient>
    <linearGradient id="towerC" x1="0" y1="0" x2="0" y2="1">
      <stop offset="0%" stop-color="#dff2ff" />
      <stop offset="100%" stop-color="#97c9e9" />
    </linearGradient>
    <linearGradient id="awningRed" x1="0" y1="0" x2="0" y2="1">
      <stop offset="0%" stop-color="#ff6f56" />
      <stop offset="100%" stop-color="#dc4333" />
    </linearGradient>
    <linearGradient id="awningCream" x1="0" y1="0" x2="0" y2="1">
      <stop offset="0%" stop-color="#fff6e7" />
      <stop offset="100%" stop-color="#f2e3c5" />
    </linearGradient>
    <radialGradient id="fountainGlow" cx="50%" cy="50%" r="50%">
      <stop offset="0%" stop-color="#e6fbff" />
      <stop offset="100%" stop-color="#8fd7ef" />
    </radialGradient>
    <style>
      .ol {
        stroke: #27486a;
        stroke-width: 5;
        stroke-linecap: round;
        stroke-linejoin: round;
      }
      .ol2 {
        stroke: #375f82;
        stroke-width: 4;
        stroke-linecap: round;
        stroke-linejoin: round;
      }
      .wnd {
        fill: #cde9ff;
        stroke: #3f6c94;
        stroke-width: 3;
      }
      .lane {
        fill: #edf4ff;
      }
      .tree {
        fill: #6ebc3f;
        stroke: #3f7c3b;
        stroke-width: 4;
      }
      .trunk {
        fill: #7f5637;
      }
    </style>
  </defs>

  <rect width="1600" height="900" fill="url(#sky)" />

  <circle cx="804" cy="142" r="60" fill="#ffd15a" />
  <g stroke="#f8f0cf" stroke-width="8" stroke-linecap="round">
    <line x1="804" y1="42" x2="804" y2="18" />
    <line x1="804" y1="266" x2="804" y2="242" />
    <line x1="704" y1="142" x2="680" y2="142" />
    <line x1="928" y1="142" x2="904" y2="142" />
    <line x1="734" y1="72" x2="718" y2="56" />
    <line x1="874" y1="212" x2="858" y2="196" />
    <line x1="734" y1="212" x2="718" y2="228" />
    <line x1="874" y1="72" x2="858" y2="88" />
  </g>

  <g fill="#f4fbff" opacity="0.96">
    <ellipse cx="152" cy="158" rx="92" ry="33" />
    <ellipse cx="236" cy="164" rx="70" ry="26" />
    <ellipse cx="1110" cy="116" rx="60" ry="24" />
    <ellipse cx="1368" cy="122" rx="98" ry="36" />
    <ellipse cx="1470" cy="132" rx="64" ry="24" />
    <ellipse cx="1016" cy="184" rx="52" ry="20" opacity="0.84" />
  </g>

  <g>
    <ellipse cx="436" cy="108" rx="90" ry="27" fill="#74bdf0" class="ol" />
    <rect x="364" y="108" width="144" height="28" rx="14" fill="#4f9ee2" class="ol" />
    <rect x="428" y="136" width="32" height="14" rx="4" fill="#e89345" class="ol2" />
    <polygon points="338,109 364,104 353,121 338,129" fill="#f25f45" class="ol2" />
    <polygon points="338,129 352,121 347,138 334,143" fill="#f25f45" class="ol2" />
  </g>

  <g fill="#2f6792" stroke="#2a567e" stroke-width="4">
    <path d="M1340 214 Q1354 226 1368 214" fill="none" />
    <path d="M554 228 Q567 240 580 228" fill="none" />
    <path d="M584 244 Q592 253 600 244" fill="none" />
  </g>

  <g opacity="0.9">
    <rect x="566" y="250" width="72" height="220" fill="#579bcb" />
    <rect x="646" y="198" width="74" height="272" fill="#67addf" />
    <rect x="730" y="294" width="60" height="176" fill="#5896c6" />
    <rect x="800" y="228" width="92" height="242" fill="#72bce9" />
    <rect x="902" y="274" width="62" height="196" fill="#518ebf" />
    <rect x="974" y="216" width="70" height="254" fill="#60a8da" />
    <rect x="1054" y="276" width="56" height="194" fill="#4f8fbe" />
    <g fill="#c0e1f9">
      <rect x="586" y="278" width="12" height="14" />
      <rect x="612" y="278" width="12" height="14" />
      <rect x="586" y="306" width="12" height="14" />
      <rect x="612" y="306" width="12" height="14" />
      <rect x="666" y="226" width="12" height="14" />
      <rect x="692" y="226" width="12" height="14" />
      <rect x="666" y="254" width="12" height="14" />
      <rect x="692" y="254" width="12" height="14" />
      <rect x="989" y="242" width="12" height="14" />
      <rect x="1015" y="242" width="12" height="14" />
      <rect x="989" y="270" width="12" height="14" />
      <rect x="1015" y="270" width="12" height="14" />
      <rect x="1072" y="302" width="12" height="14" />
      <rect x="1088" y="302" width="12" height="14" />
      <rect x="1072" y="330" width="12" height="14" />
      <rect x="1088" y="330" width="12" height="14" />
    </g>
  </g>

  <g>
    <circle cx="504" cy="448" r="86" fill="none" stroke="#3f7fb5" stroke-width="6" />
    <circle cx="504" cy="448" r="19" fill="#3f7fb5" />
    <g stroke="#3f7fb5" stroke-width="5">
      <line x1="504" y1="362" x2="504" y2="534" />
      <line x1="418" y1="448" x2="590" y2="448" />
      <line x1="442" y1="388" x2="566" y2="512" />
      <line x1="566" y1="388" x2="442" y2="512" />
    </g>
    <g fill="#9dd0f0">
      <circle cx="504" cy="362" r="9" />
      <circle cx="566" cy="388" r="9" />
      <circle cx="590" cy="448" r="9" />
      <circle cx="566" cy="512" r="9" />
      <circle cx="504" cy="534" r="9" />
      <circle cx="442" cy="512" r="9" />
      <circle cx="418" cy="448" r="9" />
      <circle cx="442" cy="388" r="9" />
    </g>
  </g>

  <g>
    <rect x="0" y="488" width="452" height="264" fill="#8e4a33" class="ol" />
    <rect x="0" y="382" width="366" height="120" fill="#cc5d42" class="ol" />
    <rect x="0" y="340" width="366" height="42" fill="#734031" class="ol" />
    <rect x="172" y="288" width="84" height="52" fill="#f06e4d" class="ol" />
    <polygon points="158,288 214,252 270,288" fill="#efe4d4" class="ol" />
    <rect x="208" y="236" width="12" height="16" fill="#734031" />
    <rect x="0" y="500" width="452" height="24" fill="#3f2b29" />
    <rect x="42" y="434" width="246" height="62" rx="10" fill="#553126" stroke="#2f201f" stroke-width="4" />
    <text
      x="165"
      y="468"
      fill="#ffd13e"
      font-size="54"
      font-family="'Arial Black', 'Segoe UI', Arial, sans-serif"
      font-weight="800"
      text-anchor="middle"
      dominant-baseline="middle"
      textLength="198"
      lengthAdjust="spacingAndGlyphs"
    >CAFE</text>
    <g>
      <rect x="24" y="416" width="32" height="44" class="wnd" />
      <rect x="96" y="416" width="32" height="44" class="wnd" />
      <rect x="170" y="416" width="32" height="44" class="wnd" />
      <rect x="244" y="416" width="32" height="44" class="wnd" />
      <rect x="318" y="416" width="32" height="44" class="wnd" />
    </g>
    <rect x="0" y="524" width="452" height="22" fill="#f7efde" />
    <rect x="0" y="546" width="56" height="78" fill="url(#awningRed)" />
    <rect x="56" y="546" width="56" height="78" fill="url(#awningCream)" />
    <rect x="112" y="546" width="56" height="78" fill="url(#awningRed)" />
    <rect x="168" y="546" width="56" height="78" fill="url(#awningCream)" />
    <rect x="224" y="546" width="56" height="78" fill="url(#awningRed)" />
    <rect x="280" y="546" width="56" height="78" fill="url(#awningCream)" />
    <rect x="336" y="546" width="56" height="78" fill="url(#awningRed)" />
    <rect x="392" y="546" width="60" height="78" fill="url(#awningCream)" />
  </g>

  <g>
    <rect x="1044" y="408" width="482" height="344" fill="#d56345" class="ol" />
    <rect x="1080" y="330" width="362" height="94" fill="#e8decc" class="ol" />
    <rect x="1118" y="446" width="92" height="66" class="wnd" />
    <rect x="1246" y="446" width="92" height="66" class="wnd" />
    <rect x="1372" y="446" width="92" height="66" class="wnd" />
    <rect x="1192" y="516" width="108" height="178" fill="#234d76" class="ol2" />
    <rect x="1044" y="540" width="482" height="90" fill="#2f8cd9" class="ol" />
    <rect x="1152" y="556" width="266" height="58" rx="10" fill="#1f6fb8" stroke="#255683" stroke-width="4" />
    <text
      x="1285"
      y="586"
      fill="#edf5ff"
      font-size="50"
      font-family="'Arial Black', 'Segoe UI', Arial, sans-serif"
      font-weight="800"
      text-anchor="middle"
      dominant-baseline="middle"
      textLength="202"
      lengthAdjust="spacingAndGlyphs"
    >SHOP</text>
    <rect x="1114" y="252" width="224" height="166" fill="#f1d5a1" class="ol" />
    <rect x="1142" y="280" width="168" height="118" fill="#2e5f93" />
    <polygon points="1228,360 1260,300 1290,352 1276,352 1276,374 1248,374 1248,352" fill="#f4f8fd" />
    <path d="M1178 357 C1180 332, 1202 326, 1218 339" fill="none" stroke="#f45f3f" stroke-width="10" stroke-linecap="round" />
    <circle cx="1174" cy="324" r="12" fill="#f4f8fd" />
  </g>

  <g>
    <rect x="452" y="334" width="128" height="262" fill="#5a98c8" class="ol" />
    <rect x="594" y="286" width="144" height="310" fill="url(#towerC)" class="ol" />
    <polygon points="666,170 738,286 594,286" fill="#4a90c5" class="ol" />
    <rect x="649" y="145" width="34" height="25" fill="#2e628f" class="ol2" />
    <rect x="790" y="318" width="106" height="278" fill="#74b9e6" class="ol" />
    <rect x="908" y="356" width="128" height="240" fill="#5fa0cd" class="ol" />
    <g fill="#dff2ff">
      <rect x="621" y="318" width="86" height="18" />
      <rect x="621" y="350" width="86" height="18" />
      <rect x="621" y="382" width="86" height="18" />
      <rect x="621" y="414" width="86" height="18" />
      <rect x="621" y="446" width="86" height="18" />
      <rect x="621" y="478" width="86" height="18" />
      <rect x="621" y="510" width="86" height="18" />
    </g>
  </g>

  <g>
    <rect x="0" y="642" width="1600" height="76" fill="#95c56e" />
    <rect x="0" y="718" width="1600" height="34" fill="#85b35f" />
    <ellipse cx="226" cy="650" rx="64" ry="16" fill="#4b9150" />
    <ellipse cx="1356" cy="646" rx="86" ry="18" fill="#4b9150" />
  </g>

  <g>
    <rect x="1150" y="676" width="112" height="10" rx="5" fill="#4f6d8e" />
    <rect x="1156" y="648" width="100" height="26" rx="6" fill="#74b348" class="ol2" />
    <rect x="1186" y="616" width="8" height="32" class="trunk" />
    <ellipse cx="1190" cy="606" rx="26" ry="20" class="tree" />
    <rect x="1268" y="676" width="112" height="10" rx="5" fill="#4f6d8e" />
    <rect x="1274" y="648" width="100" height="26" rx="6" fill="#74b348" class="ol2" />
    <rect x="1304" y="616" width="8" height="32" class="trunk" />
    <ellipse cx="1308" cy="606" rx="26" ry="20" class="tree" />
    <rect x="1386" y="676" width="112" height="10" rx="5" fill="#4f6d8e" />
    <rect x="1392" y="648" width="100" height="26" rx="6" fill="#74b348" class="ol2" />
    <rect x="1422" y="616" width="8" height="32" class="trunk" />
    <ellipse cx="1426" cy="606" rx="26" ry="20" class="tree" />
  </g>

  <g>
    <rect x="250" y="704" width="16" height="84" fill="#2f455e" />
    <polygon points="258,648 300,714 216,714" fill="#f6f9ff" class="ol" />
    <rect x="250" y="714" width="16" height="12" fill="#2f455e" />
    <rect x="238" y="788" width="40" height="12" rx="6" fill="#2f455e" />
  </g>
  <g>
    <rect x="920" y="646" width="12" height="72" fill="#2f455e" />
    <polygon points="926,604 962,660 890,660" fill="#f6f9ff" class="ol2" />
    <rect x="920" y="660" width="12" height="10" fill="#2f455e" />
  </g>

  <g>
    <ellipse cx="1316" cy="684" rx="72" ry="18" fill="#79c9eb" class="ol2" />
    <ellipse cx="1316" cy="684" rx="42" ry="10" fill="url(#fountainGlow)" />
    <path d="M1316 664 C1311 651, 1310 639, 1316 626 C1322 639, 1321 651, 1316 664 Z" fill="#95e0ff" />
    <path d="M1291 684 C1295 673, 1300 666, 1306 660 C1303 669, 1299 677, 1291 684 Z" fill="#95e0ff" />
    <path d="M1341 684 C1337 673, 1332 666, 1326 660 C1329 669, 1333 677, 1341 684 Z" fill="#95e0ff" />
  </g>

  <g>
    <rect x="0" y="694" width="1600" height="206" fill="url(#road)" />
    <path d="M410 742 L1090 742 L978 900 L240 900 Z" fill="#4f6686" />
    <path d="M1168 724 L1600 724 L1600 900 L1090 900 Z" fill="#516988" />
    <path d="M0 736 L362 736 L250 900 L0 900 Z" fill="#516988" />
    <g class="lane">
      <rect x="546" y="756" width="30" height="96" />
      <rect x="606" y="756" width="30" height="96" />
      <rect x="666" y="756" width="30" height="96" />
      <rect x="726" y="756" width="30" height="96" />
      <rect x="786" y="756" width="30" height="96" />
      <rect x="846" y="756" width="30" height="96" />
      <rect x="906" y="756" width="30" height="96" />
    </g>
    <g fill="#e5edf8">
      <rect x="100" y="852" width="74" height="10" />
      <rect x="208" y="852" width="74" height="10" />
      <rect x="316" y="852" width="74" height="10" />
      <rect x="424" y="852" width="74" height="10" />
      <rect x="532" y="852" width="74" height="10" />
      <rect x="640" y="852" width="74" height="10" />
      <rect x="748" y="852" width="74" height="10" />
    </g>
  </g>

  <g>
    <rect x="392" y="758" width="280" height="16" fill="#3f5575" />
    <rect x="410" y="762" width="30" height="92" class="lane" />
    <rect x="462" y="762" width="30" height="92" class="lane" />
    <rect x="514" y="762" width="30" height="92" class="lane" />
    <rect x="566" y="762" width="30" height="92" class="lane" />
    <rect x="618" y="762" width="30" height="92" class="lane" />
  </g>

  <g>
    <rect x="700" y="540" width="190" height="76" rx="14" fill="#57b642" class="ol" />
    <rect x="862" y="540" width="48" height="76" rx="8" fill="#5097d3" class="ol" />
    <rect x="728" y="560" width="112" height="20" rx="8" fill="#90d67f" opacity="0.75" />
    <rect x="764" y="572" width="24" height="14" rx="4" fill="#d9f0ff" />
    <rect x="794" y="572" width="24" height="14" rx="4" fill="#d9f0ff" />
    <rect x="824" y="572" width="24" height="14" rx="4" fill="#d9f0ff" />
    <circle cx="742" cy="624" r="14" fill="#1d2734" />
    <circle cx="852" cy="624" r="14" fill="#1d2734" />
    <circle cx="742" cy="624" r="6" fill="#aac1d8" />
    <circle cx="852" cy="624" r="6" fill="#aac1d8" />
  </g>

  <g>
    <rect x="510" y="632" width="132" height="48" rx="12" fill="#f5be20" class="ol" />
    <rect x="546" y="602" width="78" height="38" rx="10" fill="#f5be20" class="ol" />
    <rect x="558" y="612" width="26" height="16" fill="#a8d5f2" />
    <rect x="588" y="612" width="26" height="16" fill="#a8d5f2" />
    <rect x="542" y="650" width="58" height="12" rx="6" fill="#de9c18" />
    <circle cx="548" cy="682" r="13" fill="#1e2734" />
    <circle cx="614" cy="682" r="13" fill="#1e2734" />
  </g>

  <g>
    <rect x="1458" y="762" width="226" height="92" rx="18" fill="#d93f36" class="ol" />
    <rect x="1458" y="780" width="60" height="36" fill="#a8d6f0" />
    <rect x="1534" y="780" width="84" height="30" fill="#a8d6f0" />
    <rect x="1526" y="816" width="66" height="12" rx="6" fill="#b72f2a" />
    <circle cx="1518" cy="856" r="18" fill="#1d2734" />
    <circle cx="1634" cy="856" r="18" fill="#1d2734" />
  </g>

  <g>
    <circle cx="908" cy="766" r="18" fill="none" stroke="#2f4563" stroke-width="6" />
    <circle cx="962" cy="766" r="18" fill="none" stroke="#2f4563" stroke-width="6" />
    <path d="M884 766 L932 766 L950 738 L978 738" fill="none" stroke="#2f4563" stroke-width="6" />
    <path d="M932 766 L948 748" fill="none" stroke="#2f4563" stroke-width="6" />
  </g>
</svg>
