<svg xmlns="http://www.w3.org/2000/svg" viewBox="0 0 1600 900" role="img" aria-label="Spring night sky with moon and stars" shape-rendering="geometricPrecision">
  <defs>
    <linearGradient id="spring-night-sky" x1="0" y1="0" x2="0" y2="1">
      <stop offset="0%" stop-color="#0b2238" />
      <stop offset="54%" stop-color="#154061" />
      <stop offset="100%" stop-color="#275f87" />
    </linearGradient>
    <linearGradient id="spring-night-cloud-main" x1="0" y1="0" x2="0" y2="1">
      <stop offset="0%" stop-color="#bfd5ea" />
      <stop offset="100%" stop-color="#97b3cf" />
    </linearGradient>
    <linearGradient id="spring-night-cloud-back" x1="0" y1="0" x2="0" y2="1">
      <stop offset="0%" stop-color="#9ebdd8" />
      <stop offset="100%" stop-color="#7899b6" />
    </linearGradient>
  </defs>

  <rect width="1600" height="900" fill="url(#spring-night-sky)" />

  <g fill="#f3fbff" opacity="0.82">
    <animate attributeName="opacity" values="0.52;0.88;0.6;0.82" dur="9.8s" repeatCount="indefinite" />
    <animateTransform attributeName="transform" type="translate" values="0 0; 22 7; 0 0" dur="22s" repeatCount="indefinite" />
    <circle cx="168" cy="112" r="3.2" />
    <circle cx="254" cy="88" r="2.6" />
    <circle cx="338" cy="136" r="2.8" />
    <circle cx="446" cy="96" r="2.4" />
    <circle cx="572" cy="126" r="2.2" />
    <circle cx="676" cy="88" r="3.1" />
    <circle cx="784" cy="122" r="2.7" />
    <circle cx="884" cy="84" r="2.5" />
    <circle cx="990" cy="126" r="2.9" />
    <circle cx="1108" cy="90" r="2.4" />
    <circle cx="1306" cy="108" r="2.6" />
    <circle cx="1418" cy="84" r="2.8" />
  </g>

  <g>
    <animateTransform attributeName="transform" type="translate" values="0 0; -12 -9; 5 4; 0 0" dur="18s" repeatCount="indefinite" />
    <circle cx="1188" cy="146" r="78" fill="#f6fcff" />
    <circle cx="1220" cy="134" r="78" fill="#0e2942" />
  </g>

  <g transform="translate(86 164)">
    <animateTransform attributeName="transform" type="translate" values="86 164; 114 150; 70 172; 86 164" dur="30s" repeatCount="indefinite" />
    <ellipse cx="308" cy="152" rx="252" ry="76" fill="url(#spring-night-cloud-back)" />
    <circle cx="136" cy="132" r="76" fill="url(#spring-night-cloud-back)" />
    <circle cx="248" cy="98" r="94" fill="url(#spring-night-cloud-back)" />
    <circle cx="358" cy="108" r="82" fill="url(#spring-night-cloud-back)" />
    <circle cx="450" cy="136" r="68" fill="url(#spring-night-cloud-back)" />
    <path d="M66 166C130 196 486 198 548 165C499 188 406 204 306 204C206 204 114 189 66 166Z" fill="#6f8eab" />
  </g>

  <g transform="translate(804 74)">
    <animateTransform attributeName="transform" type="translate" values="804 74; 776 86; 820 66; 804 74" dur="38s" repeatCount="indefinite" />
    <ellipse cx="276" cy="134" rx="224" ry="70" fill="url(#spring-night-cloud-main)" />
    <circle cx="124" cy="116" r="66" fill="url(#spring-night-cloud-main)" />
    <circle cx="220" cy="88" r="84" fill="url(#spring-night-cloud-main)" />
    <circle cx="320" cy="100" r="72" fill="url(#spring-night-cloud-main)" />
    <circle cx="402" cy="126" r="58" fill="url(#spring-night-cloud-main)" />
    <path d="M60 148C112 173 429 175 488 147C449 168 365 181 277 181C191 181 108 168 60 148Z" fill="#84a2bf" />
  </g>

  <g transform="translate(478 196)">
    <animateTransform attributeName="transform" type="translate" values="478 196; 542 170; 454 216; 478 196" dur="26s" repeatCount="indefinite" />
    <ellipse cx="232" cy="118" rx="190" ry="62" fill="url(#spring-night-cloud-main)" />
    <circle cx="108" cy="104" r="56" fill="url(#spring-night-cloud-main)" />
    <circle cx="188" cy="80" r="70" fill="url(#spring-night-cloud-main)" />
    <circle cx="272" cy="88" r="62" fill="url(#spring-night-cloud-main)" />
    <circle cx="342" cy="112" r="50" fill="url(#spring-night-cloud-main)" />
    <path d="M42 134C90 155 352 157 420 134C378 151 303 162 232 162C160 162 90 152 42 134Z" fill="#84a1be" />
  </g>

  <g opacity="0.42">
    <ellipse cx="274" cy="818" rx="460" ry="120" fill="#2f5d5e" />
    <ellipse cx="1292" cy="830" rx="520" ry="130" fill="#2a5454" />
  </g>
</svg>
