<svg xmlns="http://www.w3.org/2000/svg" viewBox="0 0 1600 900" role="img" aria-label="Summer night sky with moon and stars" shape-rendering="geometricPrecision">
  <defs>
    <linearGradient id="summer-night-sky" x1="0" y1="0" x2="0" y2="1">
      <stop offset="0%" stop-color="#08254a" />
      <stop offset="52%" stop-color="#0f3f6d" />
      <stop offset="100%" stop-color="#2b6d93" />
    </linearGradient>
    <linearGradient id="summer-night-cloud-main" x1="0" y1="0" x2="0" y2="1">
      <stop offset="0%" stop-color="#c5d9eb" />
      <stop offset="100%" stop-color="#9ebad3" />
    </linearGradient>
    <linearGradient id="summer-night-cloud-back" x1="0" y1="0" x2="0" y2="1">
      <stop offset="0%" stop-color="#a2c2db" />
      <stop offset="100%" stop-color="#7d9fbd" />
    </linearGradient>
  </defs>

  <rect width="1600" height="900" fill="url(#summer-night-sky)" />

  <g fill="#f2faff" opacity="0.84">
    <animate attributeName="opacity" values="0.56;0.9;0.62;0.84" dur="8.9s" repeatCount="indefinite" />
    <animateTransform attributeName="transform" type="translate" values="0 0; 24 8; 0 0" dur="20s" repeatCount="indefinite" />
    <circle cx="124" cy="110" r="3.2" />
    <circle cx="208" cy="80" r="2.4" />
    <circle cx="288" cy="136" r="2.9" />
    <circle cx="392" cy="94" r="2.5" />
    <circle cx="512" cy="126" r="2.3" />
    <circle cx="632" cy="86" r="3.1" />
    <circle cx="734" cy="120" r="2.6" />
    <circle cx="838" cy="84" r="2.6" />
    <circle cx="946" cy="124" r="2.8" />
    <circle cx="1066" cy="94" r="2.5" />
    <circle cx="1284" cy="106" r="2.7" />
    <circle cx="1406" cy="82" r="2.9" />
  </g>

  <g>
    <animateTransform attributeName="transform" type="translate" values="0 0; -13 -10; 6 4; 0 0" dur="17s" repeatCount="indefinite" />
    <circle cx="1226" cy="136" r="82" fill="#f4fbff" />
    <circle cx="1262" cy="124" r="82" fill="#0a2b50" />
  </g>

  <g transform="translate(58 138)">
    <animateTransform attributeName="transform" type="translate" values="58 138; 90 124; 40 148; 58 138" dur="28s" repeatCount="indefinite" />
    <ellipse cx="344" cy="164" rx="286" ry="84" fill="url(#summer-night-cloud-back)" />
    <circle cx="154" cy="142" r="86" fill="url(#summer-night-cloud-back)" />
    <circle cx="286" cy="102" r="104" fill="url(#summer-night-cloud-back)" />
    <circle cx="416" cy="114" r="90" fill="url(#summer-night-cloud-back)" />
    <circle cx="526" cy="146" r="72" fill="url(#summer-night-cloud-back)" />
    <path d="M70 180C142 214 550 214 622 180C568 205 469 220 346 220C224 220 124 204 70 180Z" fill="#7596b2" />
  </g>

  <g transform="translate(764 72)">
    <animateTransform attributeName="transform" type="translate" values="764 72; 734 86; 782 64; 764 72" dur="36s" repeatCount="indefinite" />
    <ellipse cx="286" cy="140" rx="244" ry="74" fill="url(#summer-night-cloud-main)" />
    <circle cx="140" cy="122" r="72" fill="url(#summer-night-cloud-main)" />
    <circle cx="240" cy="94" r="90" fill="url(#summer-night-cloud-main)" />
    <circle cx="344" cy="104" r="78" fill="url(#summer-night-cloud-main)" />
    <circle cx="430" cy="130" r="62" fill="url(#summer-night-cloud-main)" />
    <path d="M54 154C118 181 438 184 518 154C466 177 378 191 286 191C196 191 108 178 54 154Z" fill="#86a4bf" />
  </g>

  <g transform="translate(430 198)">
    <animateTransform attributeName="transform" type="translate" values="430 198; 498 170; 404 220; 430 198" dur="24s" repeatCount="indefinite" />
    <ellipse cx="250" cy="122" rx="204" ry="64" fill="url(#summer-night-cloud-main)" />
    <circle cx="126" cy="106" r="60" fill="url(#summer-night-cloud-main)" />
    <circle cx="212" cy="82" r="76" fill="url(#summer-night-cloud-main)" />
    <circle cx="300" cy="90" r="66" fill="url(#summer-night-cloud-main)" />
    <circle cx="372" cy="112" r="52" fill="url(#summer-night-cloud-main)" />
    <path d="M44 140C95 162 394 164 458 140C418 158 338 170 250 170C165 170 88 158 44 140Z" fill="#88a6c1" />
  </g>

  <g opacity="0.36">
    <ellipse cx="792" cy="780" rx="870" ry="124" fill="#2e5f74" />
  </g>
</svg>
